# Blender 5.1.0
# www.blender.org
mtllib Cubo_Emociones.mtl
o Cube
v 1.000000 1.000000 -1.000000
v 1.000000 -1.000000 -1.000000
v 1.000000 1.000000 1.000000
v 1.000000 -1.000000 1.000000
v -1.000000 1.000000 -1.000000
v -1.000000 -1.000000 -1.000000
v -1.000000 1.000000 1.000000
v -1.000000 -1.000000 1.000000
vn -0.0000 1.0000 -0.0000
vn -0.0000 -0.0000 1.0000
vn -1.0000 -0.0000 -0.0000
vn -0.0000 -1.0000 -0.0000
vn 1.0000 -0.0000 -0.0000
vn -0.0000 -0.0000 -1.0000
vt 0.653622 0.758983
vt 0.654238 1.002248
vt 0.340415 1.002702
vt 0.339799 0.759437
vt 0.321224 0.508366
vt 0.319584 0.747097
vt 0.015845 0.747340
vt 0.017495 0.507252
vt 0.353941 0.239502
vt 0.354478 0.012701
vt 0.646059 0.013031
vt 0.645522 0.239832
vt 0.650719 0.262774
vt 0.651267 0.495353
vt 0.338490 0.495804
vt 0.337942 0.263226
vt 0.647573 0.510380
vt 0.648617 0.743888
vt 0.349077 0.744686
vt 0.348032 0.511178
vt 0.977039 0.514111
vt 0.975602 0.746136
vt 0.666341 0.739618
vt 0.667744 0.513017
s 0
usemtl Material
f 1/1/1 5/2/1 7/3/1 3/4/1
f 4/5/2 3/6/2 7/7/2 8/8/2
f 8/9/3 7/10/3 5/11/3 6/12/3
f 6/13/4 2/14/4 4/15/4 8/16/4
f 2/17/5 1/18/5 3/19/5 4/20/5
f 6/21/6 5/22/6 1/23/6 2/24/6
