# Blender 5.1.0
# www.blender.org
mtllib goddard_cola.mtl
o Plano
v -3.342657 2.582691 3.851720
v -3.359278 2.601288 4.065430
v -3.443560 2.801167 4.079612
v -3.427116 2.782683 3.865866
v -4.045034 2.721962 4.001569
v -4.051386 2.729130 4.085185
v -3.735489 2.586658 4.109293
v -3.718868 2.568061 3.895582
v -3.730479 2.776157 4.112715
v -3.713985 2.757641 3.899084
v -4.220109 2.891184 4.073788
v -4.049525 2.803427 4.086629
v -4.225192 2.881066 4.074192
v -4.043047 2.796178 4.002934
v -4.224203 2.879892 4.060608
v -4.219069 2.889978 4.060318
vn -0.9216 -0.3862 -0.0378
vn -0.9217 -0.3860 -0.0381
vn -0.9216 -0.3862 -0.0376
vn 0.4137 0.9092 -0.0467
vn 0.4136 0.9093 -0.0465
vn 0.4137 0.9092 -0.0469
vn -0.0492 0.9947 -0.0904
vn 0.0972 -0.9909 0.0933
vn 0.0973 -0.9909 0.0934
vn 0.0971 -0.9909 0.0932
vn -0.1165 0.0211 -0.9930
vn -0.1167 0.0212 -0.9929
vn -0.1165 0.0212 -0.9930
vn -0.1166 0.0213 -0.9930
vn 0.1168 -0.0209 0.9929
vn 0.1166 -0.0213 0.9929
vn 0.1167 -0.0211 0.9929
vn 0.0725 0.0056 -0.9974
vn -0.0913 -0.9927 0.0789
vn -0.0914 -0.9927 0.0789
vn -0.0913 -0.9927 0.0790
vn 0.0831 0.0160 -0.9964
vn 0.0832 0.0158 -0.9964
vn 0.0832 0.0160 -0.9964
vn 0.0833 0.0161 -0.9964
vn 0.2934 -0.0321 0.9554
vn 0.2981 -0.0253 0.9542
vn 0.2907 -0.0344 0.9562
vn 0.8895 -0.4442 0.1073
vn 0.8895 -0.4441 0.1073
vn 0.2888 -0.0350 0.9568
vn 0.6586 0.7524 -0.0144
vn 0.6586 0.7524 -0.0145
vn 0.6585 0.7524 -0.0143
vn 0.6585 0.7524 -0.0144
vn -0.4593 -0.8873 0.0415
vn -0.4594 -0.8873 0.0413
vn -0.4594 -0.8873 0.0414
vn -0.4592 -0.8874 0.0416
vt 1.000000 0.000000
vt 1.000000 1.000000
vt 0.000000 1.000000
vt 0.000000 0.000000
s 1
g off
usemtl Goddard_None
f 1/1/1 2/2/2 3/3/1
f 3/3/1 4/4/3 1/1/1
f 5/1/4 6/2/5 7/2/6
f 7/2/6 8/1/6 5/1/4
f 8/1/7 7/2/7 2/2/7
f 2/2/7 1/1/7 8/1/7
f 9/3/8 10/4/9 4/4/8
f 4/4/8 3/3/10 9/3/8
f 7/2/11 9/3/12 3/3/13
f 3/3/13 2/2/14 7/2/11
f 10/4/15 8/1/16 1/1/17
f 1/1/17 4/4/15 10/4/15
f 11/3/18 12/3/18 6/2/18
f 6/2/18 13/2/18 11/3/18
f 12/3/19 14/4/20 10/4/21
f 10/4/21 9/3/21 12/3/19
f 9/3/22 7/2/23 6/2/24
f 6/2/24 12/3/25 9/3/22
f 5/1/26 8/1/27 10/4/27
f 10/4/27 14/4/28 5/1/26
f 11/3/29 13/2/29 15/1/30
f 15/1/30 16/4/29 11/3/29
f 14/4/28 16/4/31 15/1/31
f 15/1/31 5/1/26 14/4/28
f 13/2/32 6/2/33 5/1/34
f 5/1/34 15/1/35 13/2/32
f 16/4/36 14/4/37 12/3/38
f 12/3/38 11/3/39 16/4/36
