# Blender 5.1.0
# www.blender.org
mtllib 8die.mtl
o Cube
v 0.000000 1.592374 0.000000
v 0.000000 -1.584320 0.000000
v 1.000000 -0.012280 -1.000000
v -1.000000 -0.012280 1.000000
v 1.000000 -0.012280 1.000000
v -1.000000 -0.012280 -1.000000
vn -0.0000 0.5289 0.8487
vn -0.8487 0.5289 -0.0000
vn 0.8487 0.5289 -0.0000
vn -0.0000 0.5289 -0.8487
vn -0.0000 -0.5367 -0.8438
vn 0.8438 -0.5367 -0.0000
vn -0.8438 -0.5367 -0.0000
vn -0.0000 -0.5367 0.8438
vt 0.849281 0.609133
vt 0.785279 0.714357
vt 0.740504 0.599030
vt 0.525505 0.338230
vt 0.447373 0.477340
vt 0.378092 0.338922
vt 0.694329 0.593979
vt 0.626205 0.730359
vt 0.560130 0.605321
vt 0.344583 0.360260
vt 0.274688 0.481347
vt 0.213412 0.346088
vt 0.812878 0.509025
vt 0.756252 0.360502
vt 0.874235 0.368390
vt 0.451646 0.709615
vt 0.397833 0.598801
vt 0.515677 0.604328
vt 0.645259 0.491589
vt 0.571076 0.330119
vt 0.709024 0.346585
vt 0.292223 0.710405
vt 0.221952 0.597842
vt 0.328047 0.615036
s 0
usemtl Material
f 5/1/1 1/2/1 4/3/1
f 4/4/2 1/5/2 6/6/2
f 3/7/3 1/8/3 5/9/3
f 6/10/4 1/11/4 3/12/4
f 2/13/5 6/14/5 3/15/5
f 2/16/6 3/17/6 5/18/6
f 2/19/7 4/20/7 6/21/7
f 2/22/8 5/23/8 4/24/8
